<svg width="2047" height="1662" viewBox="0 0 2047 1662" fill="none" xmlns="http://www.w3.org/2000/svg">
<path d="M339.305 1340.58C335.412 1327.2 347.967 1314.98 361.12 1319.01L361.747 1319.21L812.219 1474.74C821.045 1477.79 825.906 1487.24 823.248 1496.2L781.474 1636.86C779.275 1644.26 772.473 1649.34 764.752 1649.34H442.26C434.503 1649.34 427.678 1644.21 425.511 1636.77L339.305 1340.58Z" fill="#F00000" stroke="white" stroke-width="25"/>
<path d="M1203.75 1383.12C1199.62 1368.49 1215.16 1355.46 1228.95 1363.28C1255.18 1378.14 1271.85 1390.49 1298.28 1403.42C1410.18 1458.12 1515.64 1509.3 1619.72 1548.53C1627.66 1551.53 1632.3 1559.8 1630.7 1568.15L1620.96 1618.9C1619.38 1627.12 1612.2 1633.06 1603.83 1633.06H1287.52C1279.71 1633.06 1272.86 1627.87 1270.73 1620.35L1203.75 1383.12Z" fill="#2EB67D" stroke="white" stroke-width="25"/>
<path d="M1568.2 602.376C1575.2 602.169 1583.08 606.315 1585.59 615.018L1585.71 615.436L1587.35 621.627C1595.57 652.57 1604.09 683.288 1612.9 713.553C1643.02 817.073 1676.74 916.069 1713.97 1001C1724.1 1024.11 1730.68 1044.7 1737.21 1063.21C1743.8 1081.87 1750.45 1098.83 1760.93 1116.31C1763.4 1120.42 1764.13 1125.48 1762.73 1130.26L1663.21 1468.64C1660.34 1478.38 1649.79 1483.61 1640.3 1480.03C1540.47 1442.26 1450.85 1402.44 1345.06 1350.72C1285.39 1321.54 1226.43 1290.27 1169.51 1256.96C1165.68 1254.72 1162.86 1251.11 1161.6 1246.88L1150.35 1208.99C1149.17 1205.03 1149.44 1200.78 1151.1 1196.99V1196.99L1320.6 812.185L1320.76 811.833C1327.54 797.213 1348.93 798.908 1353.33 814.415L1353.43 814.787L1437.73 1135.91C1437.85 1135.94 1437.97 1135.97 1438.09 1136C1439.14 1134.27 1440.43 1131.78 1441.94 1128.38C1446.55 1117.95 1451.85 1101.98 1457.61 1081.55C1469.09 1040.88 1481.86 984.533 1494.31 924.342C1519.19 804.058 1542.57 669.51 1551.54 616.837C1553.14 607.463 1561.02 602.589 1568.2 602.376ZM1424.26 1132.95C1424.25 1132.95 1424.24 1132.95 1424.23 1132.95L1424.2 1132.94C1424.22 1132.95 1424.24 1132.95 1424.26 1132.95Z" fill="#FCB835" stroke="white" stroke-width="25"/>
<path d="M1286.29 624.22C1298.95 624.22 1307.4 637.279 1302.2 648.823L1213.86 845.141L1213.81 845.252L1213.76 845.363L1127.85 1026.73C1120.98 1041.23 1099.83 1039.55 1095.33 1024.15L1027.54 791.899L942.362 1079.54C938.607 1092.22 922.655 1096.28 913.302 1086.92L717.922 891.542C713.618 887.239 711.755 880.859 713.354 874.756L775.608 637.242L775.706 636.883C777.836 629.404 784.676 624.22 792.482 624.22H1286.29Z" fill="#36C5F0" stroke="white" stroke-width="25"/>
<path d="M1060.62 12.5C1081.94 12.4629 1099.97 27.5002 1111.54 50.7891L1112.08 51.9043L1112.17 52.0928L1112.26 52.2852L1305.34 489.247C1317.9 515.508 1314.73 542.646 1293.69 556.278C1273.88 569.117 1245.03 565.073 1216.49 545.892L1095.24 485.265L1094.48 484.889L1093.79 484.415C1081.4 475.979 1061.61 471.179 1040.3 471.245C1019.05 471.311 998.732 476.213 985.582 484.617L985.434 484.712L985.282 484.803L883.757 545.718C868.989 555.129 855.149 560.712 842.745 562.433C830.25 564.166 818.431 562.029 809.415 554.912C790.827 540.239 792.592 513.181 804.974 488.951L1008.18 52.0654L1008.28 51.8398L1008.4 51.6182C1020.58 27.9434 1039.11 12.5375 1060.62 12.5Z" fill="#2EB67D" stroke="white" stroke-width="25"/>
<path d="M2016.71 197.307C2028.42 197.307 2036.8 208.613 2033.4 219.817V219.818L1807.72 963.428C1803.12 978.601 1781.86 980.455 1775.32 965.321L1774.15 962.654C1738.71 881.783 1708.81 782.403 1676.59 685.015C1644.57 588.22 1607.65 488.95 1577.2 387.685C1576.17 384.277 1576.22 380.641 1577.32 377.264L1631.99 209.351L1632.22 208.684C1634.75 201.869 1641.26 197.307 1648.58 197.307H2016.71Z" fill="#F00000" stroke="white" stroke-width="25"/>
<path d="M385.333 197.307C393.381 197.307 400.366 202.81 402.274 210.595L402.361 210.967L421.279 296.096C422.504 301.607 420.978 307.313 417.299 311.471H417.298C382.036 351.317 357.003 395.131 317.183 450.585C268.915 517.802 219.461 592.675 173.21 665.66C165.173 678.342 145.916 675.63 141.716 661.196L13.2139 219.625C9.96576 208.463 18.3379 197.307 29.9629 197.307H385.333Z" fill="#36C5F0" stroke="white" stroke-width="25"/>
<mask id="path-8-outside-1_532_623" maskUnits="userSpaceOnUse" x="227.164" y="766.518" width="701" height="624" fill="black">
<rect fill="white" x="227.164" y="766.518" width="701" height="624"/>
<path d="M623.088 1124.62C623.873 1128.03 633.253 1134.78 643.417 1134.78C653.581 1134.78 652.712 1127.92 653.582 1124.62L684.075 982.316C688.452 965.682 703.877 968.845 714.569 982.316C730.716 1002.67 743.066 1013.02 761.084 1032.34C801.643 1075.85 846.884 1117.07 895.446 1156.09C901.932 1161.3 904.663 1169.91 902.296 1177.88L850.937 1350.78C847.638 1361.87 835.749 1367.98 824.811 1364.2L328.316 1205.94C322.079 1203.78 309.832 1191.94 307.987 1185.61L257.164 1022.97L541.771 809.518L623.088 1124.62Z"/>
</mask>
<path d="M623.088 1124.62C623.873 1128.03 633.253 1134.78 643.417 1134.78C653.581 1134.78 652.712 1127.92 653.582 1124.62L684.075 982.316C688.452 965.682 703.877 968.845 714.569 982.316C730.716 1002.67 743.066 1013.02 761.084 1032.34C801.643 1075.85 846.884 1117.07 895.446 1156.09C901.932 1161.3 904.663 1169.91 902.296 1177.88L850.937 1350.78C847.638 1361.87 835.749 1367.98 824.811 1364.2L328.316 1205.94C322.079 1203.78 309.832 1191.94 307.987 1185.61L257.164 1022.97L541.771 809.518L623.088 1124.62Z" fill="#2EB67D"/>
<path d="M623.088 1124.62L647.45 1119.01L647.377 1118.69L647.295 1118.37L623.088 1124.62ZM643.417 1134.78L643.417 1159.78H643.417V1134.78ZM653.582 1124.62L677.755 1131L677.904 1130.43L678.027 1129.86L653.582 1124.62ZM684.075 982.316L659.898 975.954L659.751 976.513L659.63 977.078L684.075 982.316ZM714.569 982.316L734.156 966.78L734.151 966.774L714.569 982.316ZM761.084 1032.34L742.798 1049.39L742.798 1049.39L761.084 1032.34ZM895.446 1156.09L879.787 1175.57L879.787 1175.57L895.446 1156.09ZM902.296 1177.88L926.261 1185L926.263 1185L902.296 1177.88ZM850.937 1350.78L874.899 1357.91L874.902 1357.9L850.937 1350.78ZM824.811 1364.2L832.963 1340.57L832.684 1340.47L832.403 1340.38L824.811 1364.2ZM328.316 1205.94L320.158 1229.57L320.44 1229.67L320.724 1229.76L328.316 1205.94ZM307.987 1185.61L331.991 1178.62L331.922 1178.38L331.849 1178.15L307.987 1185.61ZM257.164 1022.97L242.164 1002.97L228.034 1013.57L233.302 1030.43L257.164 1022.97ZM541.771 809.518L565.978 803.272L556.647 767.112L526.771 789.519L541.771 809.518ZM623.088 1124.62L598.726 1130.23C600.592 1138.33 605.7 1143.6 607.771 1145.6C610.679 1148.42 614.009 1150.79 617.364 1152.71C623.94 1156.45 633.06 1159.78 643.417 1159.78L643.417 1134.78L643.417 1109.78C643.61 1109.78 642.958 1109.74 642.107 1109.26C641.748 1109.05 641.951 1109.1 642.561 1109.69C642.869 1109.99 643.565 1110.7 644.368 1111.87C645.055 1112.87 646.598 1115.31 647.45 1119.01L623.088 1124.62ZM643.417 1134.78V1159.78C648.64 1159.78 654.679 1158.92 660.541 1155.92C666.787 1152.74 671.166 1147.98 673.929 1142.92C676.429 1138.34 677.295 1134.06 677.659 1132.04C677.824 1131.12 678 1129.94 678.007 1129.9C678.077 1129.46 677.997 1130.08 677.755 1131L653.582 1124.62L629.409 1118.24C628.949 1119.99 628.707 1121.54 628.617 1122.11C628.589 1122.29 628.562 1122.47 628.542 1122.59C628.52 1122.74 628.506 1122.83 628.491 1122.92C628.478 1123.01 628.468 1123.07 628.461 1123.11C628.455 1123.15 628.452 1123.17 628.453 1123.16C628.454 1123.16 628.473 1123.05 628.514 1122.87C628.556 1122.69 628.625 1122.41 628.732 1122.05C628.943 1121.36 629.334 1120.26 630.041 1118.96C631.642 1116.03 634.278 1113.19 637.801 1111.39C640.94 1109.79 643.276 1109.78 643.417 1109.78V1134.78ZM653.582 1124.62L678.027 1129.86L708.52 987.554L684.075 982.316L659.63 977.078L629.137 1119.38L653.582 1124.62ZM684.075 982.316L708.252 988.678C708.414 988.064 707.966 990.327 705.059 992.716C701.836 995.366 698.028 996.16 695.236 995.968C692.887 995.806 691.955 995.045 692.436 995.352C692.813 995.594 693.784 996.342 694.988 997.858L714.569 982.316L734.151 966.774C726.54 957.185 714.207 947.156 698.671 946.086C690.14 945.498 680.987 947.778 673.306 954.093C665.943 960.147 661.925 968.252 659.898 975.954L684.075 982.316ZM714.569 982.316L694.983 997.853C711.826 1019.09 726.847 1032.28 742.798 1049.39L761.084 1032.34L779.37 1015.3C759.285 993.752 749.606 986.258 734.156 966.78L714.569 982.316ZM761.084 1032.34L742.798 1049.39C784.299 1093.91 830.447 1135.93 879.787 1175.57L895.446 1156.09L911.105 1136.6C863.32 1098.2 818.988 1057.79 779.37 1015.3L761.084 1032.34ZM895.446 1156.09L879.787 1175.57C878.438 1174.49 877.78 1172.62 878.329 1170.77L902.296 1177.88L926.263 1185C931.546 1167.2 925.427 1148.1 911.105 1136.6L895.446 1156.09ZM902.296 1177.88L878.331 1170.77L826.971 1343.66L850.937 1350.78L874.902 1357.9L926.261 1185L902.296 1177.88ZM850.937 1350.78L826.974 1343.65C827.736 1341.09 830.463 1339.71 832.963 1340.57L824.811 1364.2L816.658 1387.84C841.035 1396.24 867.539 1382.65 874.899 1357.91L850.937 1350.78ZM824.811 1364.2L832.403 1340.38L335.909 1182.12L328.316 1205.94L320.724 1229.76L817.218 1388.02L824.811 1364.2ZM328.316 1205.94L336.475 1182.31C337.134 1182.53 337.6 1182.74 337.849 1182.86C338.107 1182.98 338.248 1183.07 338.265 1183.08C338.28 1183.08 338.051 1182.95 337.587 1182.61C336.641 1181.91 335.379 1180.84 334.071 1179.55C332.751 1178.25 331.749 1177.08 331.163 1176.29C330.878 1175.9 330.838 1175.8 330.943 1175.99C331.002 1176.09 331.524 1177.02 331.991 1178.62L307.987 1185.61L283.984 1192.59C285.682 1198.43 288.87 1203.19 290.966 1206.02C293.39 1209.3 296.186 1212.41 298.938 1215.13C301.702 1217.86 304.787 1220.55 307.949 1222.88C310.741 1224.93 315.064 1227.81 320.158 1229.57L328.316 1205.94ZM307.987 1185.61L331.849 1178.15L281.026 1015.52L257.164 1022.97L233.302 1030.43L284.125 1193.06L307.987 1185.61ZM257.164 1022.97L272.164 1042.97L556.772 829.518L541.771 809.518L526.771 789.519L242.164 1002.97L257.164 1022.97ZM541.771 809.518L517.565 815.765L598.881 1130.87L623.088 1124.62L647.295 1118.37L565.978 803.272L541.771 809.518Z" fill="white" mask="url(#path-8-outside-1_532_623)"/>
<path d="M404.567 454.151C413.836 441.885 428.225 440.681 439.267 444.876C449.905 448.917 459.392 458.42 462.395 471.024L523.359 704.719L525.478 712.84L518.764 717.875L234.156 931.331L219.829 942.076L214.684 924.923L184.189 823.277L184.16 823.177C183.119 819.598 182.176 814.755 181.95 809.865C181.75 805.548 181.949 798.606 185.516 792.807L185.517 792.805C243.67 698.291 304.002 593.022 368.791 502.797C380.885 485.955 392.828 469.688 404.567 454.151Z" fill="#FCB835" stroke="white" stroke-width="25"/>
</svg>
